# xmcd
#
# Track frame offsets:
#	200
#	17612
#	34037
#	56887
#	76570
#	92215
#	106592
#	124582
#	141137
#	158040
#	172997
#	189047
#	205292
#	222072
#	238030
#	258912
#	277465
#	298830
#
# Disc length: 4229 seconds
#
# Revision: 2
# Processed by: cddbd v1.5.2PL0 Copyright (c) Steve Scherf et al.
# Submitted via: audiograbber 1.83.01
#
DISCID=f5108312
DTITLE=Various Artist - The Cream Of Country 2
DYEAR=1998
DGENRE=Country
TTITLE0=Trisha Yearwood - There Goes My Baby
TTITLE1=Brooks and Dunn - How Long Gone
TTITLE2=LeAnn Rimes - How Do I Live (Extended Version)
TTITLE3=The Mavericks - Dance The Night Away
TTITLE4=George Strait - I Just Want To Dance With You
TTITLE5=Dixie Chicks - There's Your Trouble
TTITLE6=Diamond Rio - You're Gone
TTITLE7=Collin Raye - I Can Still Feel You
TTITLE8=Lee Ann Womack - Never Again, Again
TTITLE9=Jo Dee Messina - Bye Bye
TTITLE10=Tim McGraw - Just To See You Smile
TTITLE11=Martina McBride - A Broken Wing
TTITLE12=Michael Peterson - When The Bartender Cries
TTITLE13=Pam Tillis - Land Of The Living
TTITLE14=Vince Gill - If You Ever Have Forever On Your Mind
TTITLE15=Patty Loveless - You Don't Seem To Miss Me
TTITLE16=Alabama - Dancin', Shaggin' On The Boulevard
TTITLE17=Anita Cochran - One Of Those Days
EXTD=
EXTT0=
EXTT1=
EXTT2=
EXTT3=
EXTT4=
EXTT5=
EXTT6=
EXTT7=
EXTT8=
EXTT9=
EXTT10=
EXTT11=
EXTT12=
EXTT13=
EXTT14=
EXTT15=
EXTT16=
EXTT17=
PLAYORDER=
